<?xml version="1.0" encoding="UTF-8"?>
<svg id="uuid-84400f89-6d7e-41a9-8921-359bd246c359" data-name="Calque 2" xmlns="http://www.w3.org/2000/svg" viewBox="0 0 306.93302 205.2721">
  <defs>
    <style>
      .uuid-193c1ce2-bada-4e46-b790-60df4a173cff {
        fill: #39a5dd;
      }

      .uuid-193c1ce2-bada-4e46-b790-60df4a173cff, .uuid-2769a368-e74a-4ab5-afe0-ddbefe9ffdc4, .uuid-a89f4645-86ec-4e18-bf1a-a3f43dfcd06e, .uuid-8bf36c73-fc81-4cb1-9c85-a5fc67a0ff81, .uuid-398bc130-8763-4d6b-af3c-6c84fddd03d5 {
        stroke-width: 0px;
      }

      .uuid-2769a368-e74a-4ab5-afe0-ddbefe9ffdc4 {
        fill: #215a84;
      }

      .uuid-a89f4645-86ec-4e18-bf1a-a3f43dfcd06e {
        fill: #e42074;
      }

      .uuid-8bf36c73-fc81-4cb1-9c85-a5fc67a0ff81 {
        fill: #dbd905;
      }

      .uuid-398bc130-8763-4d6b-af3c-6c84fddd03d5 {
        fill: #ef8f06;
      }
    </style>
  </defs>
  <g id="uuid-438b7b6f-311b-45ae-8b1f-8dba36468d9c">
    <g>
      <g>
        <path class="uuid-2769a368-e74a-4ab5-afe0-ddbefe9ffdc4" d="m254.72086,129.64158v.02625c-.525.07859-1.04999.13109-1.57371.20968.52372-.07859,1.04871-.15734,1.57371-.23593Z"/>
        <rect class="uuid-2769a368-e74a-4ab5-afe0-ddbefe9ffdc4" x="146.86102" y="111.10105" width="4.79795" height="47.12482"/>
        <path class="uuid-2769a368-e74a-4ab5-afe0-ddbefe9ffdc4" d="m149.26099,96.94862c-.62517-.00604-1.22841.23011-1.68333.65896-.47681.43301-.73986,1.05327-.7197,1.69704-.0017.62648.25936,1.22497.7197,1.64992.44131.45525,1.0493.71069,1.68333.70725.65169.02204,1.28177-.23529,1.7317-.70725.43469-.43864.67673-1.03239.67259-1.64992.02159-.6346-.22213-1.24952-.67259-1.69704-.4497-.43848-1.02693-.65812-1.7317-.65896Z"/>
        <rect class="uuid-2769a368-e74a-4ab5-afe0-ddbefe9ffdc4" x="231.82066" y="97.06007" width="9.46566" height="4.86683" transform="translate(.27941 199.6487) rotate(-45.78324)"/>
        <path class="uuid-2769a368-e74a-4ab5-afe0-ddbefe9ffdc4" d="m213.39085,119.65017c-1.41621,1.75698-2.59553,3.72379-3.46113,5.8742-.1575.34093-.28811.68185-.42,1.04887.105-.36702.2625-.70794.39311-1.04887.8656-2.1504,2.0462-4.11722,3.48802-5.8742Z"/>
        <path class="uuid-2769a368-e74a-4ab5-afe0-ddbefe9ffdc4" d="m213.02335,132.39509c.05378-.44577.13189-.89169.21-1.31121-.0525.41952-.13061.86544-.18311,1.31121h-.02689Z"/>
        <path class="uuid-2769a368-e74a-4ab5-afe0-ddbefe9ffdc4" d="m213.49585,129.82517c.105-.41968.21-.83919.34061-1.23262-.13061.39343-.23561.81294-.31372,1.25871-.105.39343-.18439.81294-.28939,1.23262.07939-.41968.1575-.83919.2625-1.25871Z"/>
        <path class="uuid-2769a368-e74a-4ab5-afe0-ddbefe9ffdc4" d="m224.69364,117.21134c.99621-.41968,2.01931-.73435,3.09492-.94419-1.04871.20984-2.0987.52452-3.09492.94419Z"/>
        <path class="uuid-2769a368-e74a-4ab5-afe0-ddbefe9ffdc4" d="m225.87424,111.80916c1.12682-.28859,2.28181-.49827,3.43552-.60327-1.15371.13109-2.3087.31468-3.43552.60327Z"/>
        <path class="uuid-2769a368-e74a-4ab5-afe0-ddbefe9ffdc4" d="m231.61718,111.0748c.78621,0,1.57371.0525,2.35992.13109-.78621-.05234-1.57371-.10484-2.35992-.10484-.7606,0-1.5481.02625-2.30742.10484.75932-.10484,1.54682-.13109,2.30742-.13109Z"/>
        <path class="uuid-2769a368-e74a-4ab5-afe0-ddbefe9ffdc4" d="m249.89474,119.67642c-.47122-.60327-.99621-1.15387-1.51993-1.70464-.525-.52452-1.0756-1.02278-1.6531-1.52105.5775.47202,1.1281.99653,1.67871,1.4948.525.55077,1.0231,1.12762,1.49432,1.73089Z"/>
        <path class="uuid-2769a368-e74a-4ab5-afe0-ddbefe9ffdc4" d="m249.05602,127.36009c.3675.97028.68121,1.96682.94371,2.96335h-.02561c-.23689-.99653-.55061-1.99307-.9181-2.96335Z"/>
      </g>
      <path class="uuid-2769a368-e74a-4ab5-afe0-ddbefe9ffdc4" d="m150.99268,100.95454c-.44994.47195-1.08001.72929-1.7317.70725-.63404.00344-1.24202-.252-1.68333-.70725-.46034-.42495-.7214-1.02344-.7197-1.64992-.02016-.64378.24289-1.26403.7197-1.69704.45492-.42885,1.05816-.66499,1.68333-.65896.70482,0,1.28207.21966,1.7317.65896.45046.44752.69418,1.06244.67259,1.69704.00415.61753-.23789,1.21128-.67259,1.64992Zm84.00565,3.62929l-3.4881-3.39401,6.59845-6.78669,3.4881,3.39401-6.59845,6.78669Z"/>
      <path class="uuid-2769a368-e74a-4ab5-afe0-ddbefe9ffdc4" d="m89.61338,111.10105v23.65428c0,3.25178-.60311,6.31996-1.78371,9.15222-1.2331,2.75351-2.96303,5.29718-5.11423,7.42133-1.04871,1.07528-2.20242,2.04556-3.43552,2.88476-1.25743.86544-2.59553,1.57339-4.01174,2.12415-3.01553,1.25871-6.05794,1.88807-9.15158,1.88807-3.09492,0-6.13733-.62936-9.15286-1.88807-1.41621-.55077-2.75303-1.25871-4.01174-2.12415-1.2331-.83919-2.38681-1.80948-3.43552-2.88476-.94499-.91778-1.80932-1.91432-2.59681-2.96335-.8131-1.02262-1.46871-2.15024-2.04492-3.33036-.99749,2.25524-2.49181,4.35315-4.43174,6.29371-1.0756,1.07528-2.22931,2.04556-3.48802,2.88476s-2.56992,1.54714-3.96052,2.12415c-3.09364,1.25871-6.13605,1.88807-9.15158,1.88807-3.17303,0-6.32044-.65561-9.25786-1.88807-1.41621-.55077-2.75303-1.25871-4.01174-2.12415-1.2331-.83919-2.38681-1.80948-3.43552-2.88476-2.14992-2.0979-3.85424-4.64158-5.00923-7.42133-1.23182-2.9371-1.88743-6.08403-1.88743-9.25722v-23.54928h4.82484v23.73287c-.02561,2.46508.44561,4.90391,1.3906,7.18541.49811,1.10137,1.07432,2.17665,1.75682,3.19944.65561.99653,1.38932,1.94057,2.20242,2.8321,1.75682,1.65214,3.80302,2.96335,6.05794,3.85504,2.17681.99653,4.64174,1.52105,7.34226,1.52105,2.49181,0,4.98234-.49827,7.26416-1.52105,2.17681-.94403,4.17052-2.25524,5.92734-3.85504,1.72993-1.73073,3.12053-3.77629,4.06424-6.03153.99621-2.20274,1.49432-4.66782,1.49432-7.36899v-23.54928h4.82612v23.54928c-.02689,2.51758.44561,5.035,1.38932,7.36899.49811,1.10137,1.0756,2.17665,1.75682,3.19944.65561,1.02262,1.4431,1.96682,2.3087,2.8321,1.75682,1.62589,3.80174,2.9371,6.00544,3.85504,2.28053,1.02278,4.74673,1.52105,7.23727,1.52105,2.64931,0,5.06173-.52452,7.23855-1.52105,2.25492-.89169,4.27424-2.2029,6.03105-3.85504,1.65182-1.78323,2.98992-3.82863,3.93363-6.03153,1.0231-2.20274,1.52121-4.66782,1.52121-7.36899v-23.54928h4.79923Z"/>
      <path class="uuid-2769a368-e74a-4ab5-afe0-ddbefe9ffdc4" d="m140.30497,125.47186c-2.38681-5.66436-6.87105-10.14875-12.53589-12.53509-5.87484-2.46508-12.509-2.46508-18.38255,0-5.66484,2.38633-10.14907,6.87073-12.53589,12.53509-1.10121,2.54383-1.67871,5.24484-1.78243,8.1296-.02689.34077-.05378.70794-.05378,1.04887-.02561,3.17319.60439,6.29387,1.83621,9.20472,2.38681,5.63827,6.87105,10.14875,12.53589,12.53525,2.91053,1.23246,6.03105,1.86182,9.20408,1.83557,3.88113,0,7.44726-.86528,10.69968-2.59617,3.14742-1.65214,5.90045-3.98613,8.05037-6.84448v9.44065h4.79923v-23.57553c.02689-3.14694-.60311-6.26762-1.83493-9.17847Zm-3.35742,13.24319c-.23561,1.12762-.57622,2.22915-1.0231,3.30428-1.07432,2.30774-2.41242,4.30081-4.06424,5.9267-.8131.89169-1.73121,1.65214-2.72742,2.30774-1.0231.68185-2.09742,1.25871-3.19992,1.75698-1.17932.49827-2.38553.83919-3.64424,1.07528-2.43931.44577-4.98362.44577-7.42165,0-1.25871-.23609-2.46492-.57702-3.64552-1.07528-2.33431-1.07512-4.30113-2.43883-5.92606-4.06472-1.6531-1.62589-2.98992-3.61895-4.06552-5.9267-.94371-2.33399-1.41621-4.85141-1.41621-7.36899,0-.20984.02689-.44577.02689-.65561.07811-2.30774.55061-4.56299,1.38932-6.68714.49811-1.12762,1.0756-2.2029,1.75682-3.19944.63-.99637,1.41621-1.88807,2.3087-2.64851,1.57371-1.70464,3.54052-3.06835,5.92606-4.14347,2.33431-.94403,4.82612-1.4423,7.36915-1.41605,2.51742,0,5.00923.47202,7.34226,1.41605,1.1281.49827,2.2037,1.10137,3.19992,1.78323s1.91432,1.46855,2.72742,2.36024c.89121.76044,1.67871,1.65214,2.30742,2.64851.6825.99653,1.25871,2.07181,1.75682,3.19944.94499,2.33399,1.41621,4.82532,1.41621,7.34274v.57702c0,.23593-.02561.47202-.0525.68169-.02561.94419-.13061,1.88823-.34061,2.80601Z"/>
      <path class="uuid-2769a368-e74a-4ab5-afe0-ddbefe9ffdc4" d="m149.26099,96.94862c-.62517-.00604-1.22841.23011-1.68333.65896-.47681.43301-.73986,1.05327-.7197,1.69704-.0017.62648.25936,1.22497.7197,1.64992.44131.45525,1.0493.71069,1.68333.70725.65169.02204,1.28177-.23529,1.7317-.70725.43469-.43864.67673-1.03239.67259-1.64992.02159-.6346-.22213-1.24952-.67259-1.69704-.4497-.43848-1.02693-.65812-1.7317-.65896Z"/>
      <rect class="uuid-2769a368-e74a-4ab5-afe0-ddbefe9ffdc4" x="231.82066" y="97.06007" width="9.46566" height="4.86683" transform="translate(.27941 199.6487) rotate(-45.78324)"/>
      <path class="uuid-2769a368-e74a-4ab5-afe0-ddbefe9ffdc4" d="m254.72086,129.66783c-.525.07859-1.04999.13109-1.57371.20968.52372-.07859,1.04871-.15734,1.57371-.23593-.1575-.7081-.34061-1.41621-.5775-2.0979-.1575-.47218-.315-.97044-.55061-1.41621-.0525-.20984-.1575-.39327-.23561-.60311-.5775-1.41621-1.2856-2.75351-2.12431-4.01238-.42-.62936-.8656-1.23246-1.3381-1.83557-.47122-.60327-.99621-1.15387-1.51993-1.70464-.525-.52452-1.0756-1.02278-1.6531-1.52105h-.02561c-.5775-.47202-1.1806-.89153-1.80932-1.31121-.65561-.41952-1.2856-.81294-1.96682-1.15387-.6825-.36718-1.36371-.68185-2.07181-.99653-.73499-.31468-1.4956-.57686-2.22931-.83919-1.52121-.47202-3.06803-.78669-4.64174-.94403-.78621-.05234-1.57371-.10484-2.35992-.10484-.7606,0-1.5481.02625-2.30742.10484-1.15371.13109-2.3087.31468-3.43552.60327-.39439.10484-.7606.20968-1.15371.34077-.7606.23609-1.4956.52452-2.2562.81294l-.02561.02625c-1.41621.57702-2.75431,1.28496-4.01302,2.09806-1.91432,1.25871-3.59174,2.80585-5.03484,4.56299-1.41621,1.75698-2.59553,3.72379-3.46113,5.8742-.1575.34093-.28811.68185-.42,1.04887-.2625.7081-.47122,1.41621-.65561,2.1504-.18311.73435-.34061,1.4948-.44561,2.2554-.1575,1.15387-.2625,2.36008-.2625,3.56645,0,.05234-.02561.13109-.02561.20984,0,3.25178.60311,6.29371,1.78243,9.12597,2.3087,5.71686,6.84544,10.25359,12.53589,12.56134,2.85803,1.18012,5.90045,1.78323,9.17847,1.78323,3.33053,0,6.39855-.60311,9.23097-1.80948,2.80553-1.20621,5.37545-2.91085,7.55226-5.06125l-3.43552-3.40911c-1.86182,1.83573-3.82863,3.17319-5.90045,4.06472-2.38553.94403-4.92984,1.38996-7.44726,1.38996-2.51742.02625-4.95673-.44593-7.26416-1.38996-1.1281-.49827-2.20242-1.07512-3.22553-1.73073s-1.94121-1.4423-2.80553-2.28149c-.8656-.89169-1.6531-1.80948-2.3087-2.83226-.68121-.99653-1.25871-2.07165-1.75682-3.19928-.315-.73435-.5775-1.5473-.73371-2.33399-.21-.81294-.3675-1.62589-.4725-2.41274h42.14183c0-.52436,0-.91778.02689-1.25871.02561-.28843.0525-.7081.0525-1.20621,0-1.73089-.21-3.40927-.55061-5.0875Zm-41.69751,2.72726c.05378-.44577.13189-.89169.21-1.31121.07939-.41968.1575-.83919.2625-1.25871.105-.41968.21-.83919.34061-1.23262.13189-.41952.2625-.81294.42-1.23246.89121-2.07181,2.22931-4.06488,4.06552-5.95295,1.80932-1.86198,3.98485-3.30428,6.37166-4.19581.99621-.41968,2.01931-.73435,3.09492-.94419.57622-.13109,1.17932-.20968,1.80932-.26218.525-.0525,1.04871-.10484,1.59932-.07875.13189-.02609.28811-.02609.42-.02609,2.70053,0,5.16545.47202,7.42165,1.41605,1.67743.73419,3.22553,1.70464,4.61485,2.85835.4725.39343.9181.8131,1.3381,1.23262,1.70432,1.70464,3.09364,3.72379,4.06424,5.95295.3675.97028.68121,1.96682.94371,2.96335h-.02561c.18311.70794.315,1.3898.39311,2.07165h-37.34388Z"/>
      <path class="uuid-2769a368-e74a-4ab5-afe0-ddbefe9ffdc4" d="m218.42569,115.08718c1.25871-.8131,2.59681-1.5473,4.01302-2.09806-1.41621.57702-2.75431,1.28496-4.01302,2.09806Z"/>
      <path class="uuid-2769a368-e74a-4ab5-afe0-ddbefe9ffdc4" d="m240.84816,112.96287c.7081.31484,1.38932.65561,2.07181,1.02278-.6825-.36718-1.36371-.68185-2.07181-.99653-.73499-.31468-1.4956-.57686-2.22931-.83919.7606.23609,1.49432.49827,2.22931.81294Z"/>
      <path class="uuid-2769a368-e74a-4ab5-afe0-ddbefe9ffdc4" d="m253.35715,125.52436c-.5775-1.41621-1.2856-2.75351-2.12431-4.01238.83871,1.25887,1.54682,2.59617,2.14992,4.01238.07939.18359.1575.39327.21.60311-.0525-.20984-.1575-.39327-.23561-.60311Z"/>
      <path class="uuid-2769a368-e74a-4ab5-afe0-ddbefe9ffdc4" d="m254.72086,129.64158v.02625c-.525.07859-1.04999.13109-1.57371.20968.52372-.07859,1.04871-.15734,1.57371-.23593Z"/>
      <path class="uuid-2769a368-e74a-4ab5-afe0-ddbefe9ffdc4" d="m305.04495,125.47186c-.9181-2.07165-2.0987-4.01222-3.51491-5.74311-.49811-.60311-1.02182-1.20621-1.57243-1.75698-2.1512-2.1504-4.69423-3.85504-7.50104-5.035-5.87356-2.46508-12.50772-2.46508-18.38255,0-5.66484,2.38633-10.14907,6.87073-12.53589,12.53509-.44561,1.07528-.81182,2.17665-1.10121,3.30428-.49811,1.91432-.73371,3.90738-.73371,5.8742-.02689,3.17319.60311,6.29387,1.83493,9.20472,2.38681,5.63827,6.87105,10.14875,12.53589,12.53525,5.87484,2.43883,12.509,2.43883,18.38255,0,2.80681-1.18012,5.34984-2.91101,7.50104-5.06141,2.14992-2.15024,3.88113-4.69407,5.08734-7.47383,2.51742-5.8742,2.51742-12.509,0-18.38319Zm-4.43174,16.44263c-.9706,2.22899-2.30742,4.27456-3.96052,6.03153-.8656.86544-1.80932,1.65214-2.83242,2.30774-1.04871.68185-2.14992,1.25871-3.30363,1.75698-2.30742.94403-4.77234,1.41621-7.26416,1.41621-2.46492,0-4.92984-.49827-7.23727-1.41621-4.56363-1.91432-8.18226-5.53327-10.09657-10.09625-.94499-2.30774-1.41621-4.77282-1.41621-7.26416,0-2.30774.41872-4.58924,1.23182-6.76589.07939-.15734.105-.31468.18439-.49827.47122-1.12762,1.04871-2.22899,1.75682-3.25178.65561-.99653,1.44182-1.91432,2.30742-2.77976,1.70432-1.73073,3.75052-3.09444,6.03234-4.03847,2.30742-.94403,4.77234-1.41605,7.23727-1.41605,2.49181-.02625,4.95673.47202,7.26416,1.41605,1.15371.47202,2.25492,1.04903,3.30363,1.73073.94499.62952,1.83621,1.33746,2.62242,2.1504.07939.0525.13189.105.21.15734.8131.89169,1.5481,1.80948,2.2037,2.77976.70682,1.02278,1.28432,2.12415,1.75682,3.25178.9706,2.30774,1.49432,4.77282,1.49432,7.26416,0,2.33399-.49811,4.74657-1.49432,7.26416Z"/>
      <path class="uuid-2769a368-e74a-4ab5-afe0-ddbefe9ffdc4" d="m201.66935,125.47186c-3.72491-8.75879-12.3515-14.42331-21.87186-14.37081-3.12053-.02625-6.24105.60311-9.09908,1.83573-5.66484,2.36008-10.17468,6.87073-12.5615,12.53509-1.25871,2.91085-1.88871,6.03153-1.86182,9.17847,0,.52452.0525,1.02278.07811,1.5473.13189,2.62242.73499,5.21859,1.75682,7.65742,2.38681,5.63827,6.89794,10.14875,12.5615,12.53525,2.85931,1.23246,5.95295,1.86182,9.07347,1.83557,3.96052,0,7.60604-.81294,10.90968-2.46508,3.27803-1.62589,5.97855-3.85488,8.05037-6.68714v32.57042c0,1.23262-.105,2.49133-.34061,3.6977-.23561,1.25871-.62872,2.46508-1.17932,3.6452-.9706,2.17649-2.3612,4.19581-4.03863,5.92654-.89249.8131-1.83621,1.57355-2.83242,2.2554s-2.01931,1.25871-3.12053,1.78323c-1.15371.52452-2.3612.91778-3.61863,1.18012-1.25999.20968-2.54431.34093-3.82991.31468-1.23182,0-2.43803-.105-3.67113-.31468-1.25871-.26234-2.49053-.65561-3.67113-1.18012-2.14992-1.07528-4.14363-2.43883-5.92734-4.06472-1.62493-1.78323-2.98864-3.77629-4.06424-5.9267-.99621-2.46508-1.52121-4.90391-1.52121-7.36899h-4.69423c0,3.09444.60311,6.16262,1.78371,9.25706,2.49181,5.63827,7.00166,10.12266,12.6665,12.58759,1.44182.62952,2.96303,1.10153,4.53674,1.38996,1.52121.28843,3.06803.44577,4.61485.44577,1.6006,0,3.19992-.15734,4.77362-.41952,1.54682-.28843,3.04114-.7606,4.48424-1.38996,3.01553-1.25871,5.50734-2.9371,7.47415-5.0875,1.10121-1.04887,2.09742-2.20274,2.96303-3.4877.8656-1.25887,1.59932-2.57008,2.22931-3.95988.62872-1.46855,1.10121-2.9896,1.36371-4.56299.28811-1.5473.41872-3.09444.41872-4.66799v-47.04623c.02689-3.14694-.60311-6.26762-1.83493-9.17847Zm-2.96431,9.70299c0,1.15387-.105,2.33399-.34061,3.48786s-.62872,2.30774-1.17932,3.38286c-.9706,2.2029-2.3612,4.19581-4.03863,5.9267-1.70432,1.70448-3.72491,3.06819-5.95295,4.03847-1.15371.52452-2.3612.91794-3.61863,1.12762-1.25999.18359-2.54431.28859-3.82991.28859-1.20621,0-2.43803-.105-3.67113-.28859-1.25871-.20968-2.49053-.60311-3.67113-1.12762-1.93993-.89153-3.93363-2.22899-5.92734-4.03847-1.62493-1.78323-2.96303-3.77629-3.95924-5.9267-.83871-1.86198-1.36371-3.82879-1.52121-5.8742-.0525-.52452-.105-1.02278-.105-1.57355,0-2.51742.55061-5.035,1.62621-7.3165.49811-1.07512,1.0756-2.12415,1.73121-3.12069s1.38932-1.94057,2.22803-2.80601c.94499-.81294,1.88871-1.57339,2.85931-2.25524s1.99242-1.28496,3.06803-1.78323c2.30742-1.04903,4.82484-1.59964,7.34226-1.59964,2.56992-.02625,5.11423.52436,7.44854,1.59964,2.17681,1.04903,4.16924,2.38633,5.95295,4.03847,1.80932,1.88823,3.17303,3.85504,4.03863,5.9267.55061,1.15387.94371,2.38649,1.17932,3.67145.23561,1.20621.34061,2.43883.34061,3.64504v.57702Z"/>
      <path class="uuid-a89f4645-86ec-4e18-bf1a-a3f43dfcd06e" d="m.89864,174.3002h-.89864v-11.77904h.89864v11.77904Z"/>
      <path class="uuid-a89f4645-86ec-4e18-bf1a-a3f43dfcd06e" d="m3.91169,163.99369l-.28665,2.0763h-.54399l.06038-2.00831v-1.54052h.77026v1.47253Z"/>
      <path class="uuid-a89f4645-86ec-4e18-bf1a-a3f43dfcd06e" d="m7.03729,163.78969h-.89864v-1.26853h.89864v1.26853Zm0,10.51051h-.89864v-8.1704h.89864v8.1704Z"/>
      <path class="uuid-a89f4645-86ec-4e18-bf1a-a3f43dfcd06e" d="m10.33758,166.1298l.08265,1.42798c.23947-.47915.60665-.88283,1.06102-1.16653.47825-.28309,1.02658-.42571,1.58214-.41151.88574,0,1.56026.27044,2.02355.8113.4631.54165.69464,1.38617.69464,2.53354v4.97564h-.90626v-4.97798c0-.9391-.17488-1.60266-.52465-1.99073-.34996-.38807-.84705-.58229-1.49128-.58269-.63426,0-1.15149.16805-1.55166.50413-.4116.35186-.71201.81581-.86464,1.33535v5.7119h-.90626v-8.17041h.80074Z"/>
      <path class="uuid-a89f4645-86ec-4e18-bf1a-a3f43dfcd06e" d="m18.94529,166.1298l.08266,1.42798c.23947-.47915.60665-.88283,1.06102-1.16653.47825-.28309,1.02658-.42571,1.58214-.41151.88574,0,1.56026.27044,2.02355.8113.46309.54165.69464,1.38617.69464,2.53354v4.97564h-.90626v-4.97798c0-.9391-.17488-1.60266-.52465-1.99073-.34996-.38807-.84705-.58229-1.49128-.58269-.63426,0-1.15148.16805-1.55166.50413-.4116.35186-.71201.81581-.86464,1.33535v5.7119h-.90626v-8.17041h.80075Z"/>
      <path class="uuid-a89f4645-86ec-4e18-bf1a-a3f43dfcd06e" d="m26.24695,170.09483c0-1.20404.32983-2.19081.9895-2.9603.65889-.77026,1.53212-1.1552,2.61971-1.1548,1.09267,0,1.96864.38494,2.62792,1.1548.65947.77026.98911,1.75703.98892,2.9603v.24855c0,1.20873-.32847,2.19667-.9854,2.96381-.65654.76791-1.5286,1.15168-2.61619,1.1513-1.09736,0-1.97568-.38377-2.63496-1.1513-.65947-.76792-.9893-1.75586-.9895-2.96381v-.24855Zm.90626.24503c0,.94496.23917,1.73943.7175,2.38347.47775.64365,1.14465.96526,2.00069.96488.84061,0,1.50125-.32163,1.98193-.96488.48068-.64365.72102-1.43814.72102-2.38347v-.24855c0-.93088-.24151-1.72068-.72454-2.3694-.48303-.64834-1.14758-.9727-1.99365-.97309-.84529,0-1.50711.32436-1.98545.97309-.47834.64951-.7175,1.43931-.7175,2.3694v.24855Z"/>
      <path class="uuid-a89f4645-86ec-4e18-bf1a-a3f43dfcd06e" d="m37.57345,172.25438l.26379.95902h.04572l.28665-.95902,2.21993-6.12458h.93615l-3.10332,8.17041h-.72454l-3.11095-8.17041h.93616l2.2504,6.12458Z"/>
      <path class="uuid-a89f4645-86ec-4e18-bf1a-a3f43dfcd06e" d="m47.87234,174.3002c-.06038-.27668-.10317-.51585-.12838-.7175-.02542-.203-.03815-.4074-.0381-.61199-.31735.44166-.73033.80595-1.20815,1.06571-.52008.28564-1.10551.43108-1.69879.42206-.79547,0-1.41332-.21143-1.85355-.63426-.44082-.42206-.66103-.98832-.66064-1.69879,0-.75501.32593-1.3592.97778-1.81252.65185-.45255,1.53153-.67881,2.63906-.67881h1.80431v-1.01178c0-.58385-.18739-1.04187-.56216-1.37405-.37517-.33297-.90001-.49944-1.57452-.49944-.56082-.02091-1.11247.14668-1.5669.47599-.41503.31772-.62274.7054-.62313,1.16302l-.83005-.00703-.01524-.04572c-.03048-.60847.24757-1.15324.83416-1.63432.5862-.48068,1.33242-.72102,2.23868-.72102.90098,0,1.62591.22901,2.17479.68702.54868.45724.82302,1.11417.82302,1.97079v4.01662c-.00041.28016.01604.56008.04924.83826.03302.27307.08731.54315.16238.80778l-.94378-.00005Zm-2.96791-.64129c.60538.01186,1.20193-.14656,1.72166-.45723.46826-.27239.84431-.67864,1.07978-1.16653v-1.707h-1.81955c-.82067,0-1.47643.17509-1.96728.52523-.49065.34938-.73587.78356-.73568,1.30254-.01401.41058.15294.80662.45665,1.08329.30424.27901.72571.41892,1.26442.41969Z"/>
      <path class="uuid-a89f4645-86ec-4e18-bf1a-a3f43dfcd06e" d="m52.43295,164.03824v2.09155h1.79728v.74096h-1.79728v5.32267c0,.53345.09692.91212.29075,1.13605.19324.22412.47807.34798.77377.33647.14596,0,.28841-.00586.42675-.01875s.29837-.034.47951-.06448l.136.67178c-.17698.0728-.36224.12361-.55161.15124-.21453.03503-.43155.05267-.64892.05276-.57389,0-1.02076-.18094-1.34063-.54281-.31948-.36344-.47931-.93753-.47951-1.72225v-5.32267h-1.41214v-.74096h1.41215v-2.09155l.91388-.00002Z"/>
      <path class="uuid-a89f4645-86ec-4e18-bf1a-a3f43dfcd06e" d="m57.16004,163.78969h-.89864v-1.26853h.89864v1.26853Zm0,10.51051h-.89864v-8.1704h.89864v8.1704Z"/>
      <path class="uuid-a89f4645-86ec-4e18-bf1a-a3f43dfcd06e" d="m59.15311,170.09483c0-1.20404.32984-2.19081.9895-2.9603.65889-.77026,1.53213-1.1552,2.61971-1.1548,1.09267,0,1.96864.38494,2.62792,1.1548.65947.77026.98911,1.75703.98891,2.9603v.24855c0,1.20873-.32847,2.19667-.9854,2.96381-.65654.76791-1.52861,1.15168-2.61619,1.1513-1.09736,0-1.97568-.38377-2.63495-1.1513-.65947-.76792-.9893-1.75586-.9895-2.96381v-.24855Zm.90626.24503c0,.94496.23917,1.73943.7175,2.38347.47775.64365,1.14465.96526,2.00069.96488.84061,0,1.50125-.32163,1.98193-.96488.48068-.64365.72102-1.43814.72102-2.38347v-.24855c0-.93088-.24151-1.72068-.72454-2.3694-.48303-.64834-1.14758-.9727-1.99365-.97309-.84529,0-1.50711.32436-1.98545.97309-.47834.64951-.7175,1.43931-.7175,2.3694v.24855Z"/>
      <path class="uuid-a89f4645-86ec-4e18-bf1a-a3f43dfcd06e" d="m69.06803,166.1298l.08266,1.42798c.23948-.47915.60665-.88283,1.06102-1.16653.47825-.28309,1.02657-.42571,1.58214-.41151.88574,0,1.56026.27044,2.02355.8113.4631.54165.69464,1.38617.69465,2.53354v4.97564h-.90626v-4.97798c0-.9391-.17488-1.60266-.52465-1.99073-.34997-.38807-.84706-.58229-1.49129-.58269-.63426,0-1.15149.16805-1.55166.50413-.4116.35186-.71201.81581-.86464,1.33535v5.7119h-.90626v-8.17041h.80075Z"/>
      <path class="uuid-a89f4645-86ec-4e18-bf1a-a3f43dfcd06e" d="m87.21258,170.44186c0,1.22279-.27688,2.19824-.83064,2.92629-.55395.72687-1.3166,1.09032-2.28793,1.09032-.52075.01193-1.03694-.09934-1.50652-.32475-.42623-.21215-.78942-.53229-1.0534-.92853v4.23585h-.90626v-11.31124h.76264l.11372,1.26853c.25411-.43506.6169-.79663,1.05281-1.0493.46587-.25499.99084-.38239,1.52177-.3693.9813,0,1.74902.3912,2.30317,1.17357.55337.78316.83026,1.82658.83064,3.13029v.15827Zm-.90626-.16999c0-1.03757-.20634-1.88404-.61903-2.53941-.41327-.65537-1.01744-.98325-1.81252-.98364-.60906,0-1.10361.14498-1.48366.43495-.38218.29275-.67826.6832-.85702,1.13019v3.93104c.19179.43057.50202.79773.89453,1.05868.43844.26974.94697.40355,1.46139.38454.79019,0,1.39046-.29701,1.8008-.89103.41033-.59559.6155-1.38459.6155-2.36706v-.15827Z"/>
      <path class="uuid-a89f4645-86ec-4e18-bf1a-a3f43dfcd06e" d="m94.41577,174.3002c-.06038-.27668-.10317-.51585-.12837-.7175-.02542-.203-.03815-.4074-.0381-.61199-.31734.44166-.73033.80595-1.20815,1.06571-.52008.28564-1.10551.43108-1.6988.42206-.79546,0-1.41332-.21143-1.85355-.63426-.44082-.42206-.66103-.98832-.66064-1.69879,0-.75501.32592-1.3592.97778-1.81252.65185-.45255,1.53154-.67881,2.63906-.67881h1.80431v-1.01178c0-.58385-.18738-1.04187-.56217-1.37405-.37517-.33297-.90001-.49944-1.57453-.49944-.56082-.02091-1.11247.14668-1.56691.47599-.41503.31772-.62274.7054-.62313,1.16302l-.83006-.00703-.01524-.04572c-.03048-.60847.24758-1.15324.83416-1.63432.5862-.48068,1.33243-.72102,2.23869-.72102.90099,0,1.62592.22901,2.17479.68702.54868.45724.82302,1.11417.82302,1.97079v4.01662c-.00041.28016.01603.56008.04924.83826.03302.27307.08732.54315.16238.80778l-.94377-.00005Zm-2.96791-.64129c.60538.01186,1.20192-.14656,1.72166-.45723.46827-.27239.84431-.67864,1.07978-1.16653v-1.707h-1.81956c-.82068,0-1.47644.17509-1.96728.52523-.49065.34938-.73588.78356-.73568,1.30254-.01401.41058.15294.80662.45665,1.08329.30423.27901.72572.41892,1.26443.41969h0Z"/>
      <path class="uuid-a89f4645-86ec-4e18-bf1a-a3f43dfcd06e" d="m101.31706,166.90826l-.67178-.04572c-.51048-.0206-1.01021.15044-1.40101.47952-.38492.35242-.65683.81097-.7814,1.31777v5.64039h-.90626v-8.17041h.79312l.11314,1.35997v.09028c.20872-.46915.53676-.87539.95139-1.17826.4167-.28731.91379-.43507,1.41977-.42206.11248-.00043.2248.0082.33589.0258.09026.0138.1797.03258.26789.05627l-.12075.84646Z"/>
      <path class="uuid-a89f4645-86ec-4e18-bf1a-a3f43dfcd06e" d="m107.59171,174.3002h-.89864v-11.77904h.89864v11.77904Z"/>
      <path class="uuid-a89f4645-86ec-4e18-bf1a-a3f43dfcd06e" d="m113.15706,174.45848c-.97563.02062-1.90973-.39452-2.5482-1.13253-.67764-.75503-1.01626-1.7113-1.01588-2.86884v-.41505c0-1.16888.33609-2.13805,1.00826-2.90754.67178-.77026,1.486-1.1552,2.44268-1.1548,1.00123,0,1.78888.31693,2.36296.95082.57388.63426.86093,1.47994.86112,2.53705v.77026h-5.76877v.21806c0,.91916.24405,1.68786.73216,2.3061.45471.60151,1.17188.94644,1.92565.92619.491.01247.98002-.06665,1.44205-.23331.3848-.14731.73273-.37698,1.0194-.67295l.38513.6202c-.32866.33798-.72663.60075-1.16653.77026-.53639.20254-1.10683.29969-1.68004.28607Zm-.11314-7.70966c-.6474-.00966-1.26519.27073-1.68414.7644-.46422.53662-.74226,1.2091-.79254,1.91686l.01465.03752h4.78747v-.22628c.02077-.64961-.20284-1.28341-.62665-1.77618-.41795-.47716-.98421-.71595-1.69879-.71633Z"/>
      <path class="uuid-a89f4645-86ec-4e18-bf1a-a3f43dfcd06e" d="m122.95006,172.21921c-.00239-.3869-.17499-.75313-.47189-1.00123-.31479-.28607-.88242-.51977-1.70289-.7011-.9766-.21105-1.69762-.49045-2.16307-.83826-.46545-.34703-.69836-.83747-.69875-1.47136,0-.62489.2632-1.15247.78961-1.58273.52582-.43028,1.22163-.64521,2.08745-.64482.9215,0,1.65151.22744,2.19003.68233.51838.41197.80539,1.04931.77027,1.71052l-.01524.04572h-.83826c-.00359-.45616-.21324-.88623-.57037-1.17005-.37986-.33295-.892-.49944-1.53643-.49944-.65947,0-1.15402.14187-1.48366.42559-.30842.2387-.49068.60538-.49475.99537-.00733.35917.14985.70201.42675.93088.2843.2462.85194.46152,1.70289.64598.97133.21806,1.69861.51506,2.18183.89103.47706.36253.74764.93472.72513,1.53349.01389.65438-.2955,1.2736-.82712,1.65542-.55102.42089-1.27966.63151-2.18593.63192-.99127,0-1.77013-.23643-2.33658-.7093-.56626-.47366-.83435-1.03756-.80426-1.69176l.01524-.04455h.83064c.03517.58619.27551,1.01178.72102,1.27674.47825.27448,1.02269.41236,1.57394.39862.65478-.00002,1.17083-.14304,1.54815-.42909.3775-.28608.56626-.63273.56626-1.03994Z"/>
      <path class="uuid-a89f4645-86ec-4e18-bf1a-a3f43dfcd06e" d="m130.59934,167.52729c.52218-.98417,1.55956-1.58476,2.67306-1.54756.86054,0,1.52117.26653,1.98192.79958.46075.53343.69112,1.36154.69112,2.48431v5.0366h-.90625v-5.06123c0-.88867-.17488-1.52567-.52464-1.911-.34996-.38571-.83201-.57877-1.44615-.57916-.55797-.01968-1.10575.15291-1.55166.48888-.42306.33602-.74135.7859-.9174,1.29668v5.76584h-.90625v-11.77904h.90625v5.00611Z"/>
      <path class="uuid-a89f4645-86ec-4e18-bf1a-a3f43dfcd06e" d="m137.7949,170.09483c0-1.20404.32984-2.19081.9895-2.9603.65889-.77026,1.53212-1.1552,2.61971-1.1548,1.09267,0,1.96865.38494,2.62792,1.1548.65947.77026.98909,1.75703.98891,2.9603v.24855c0,1.20873-.32846,2.19667-.98539,2.96381-.65654.76791-1.52861,1.15168-2.6162,1.1513-1.09737,0-1.97568-.38377-2.63495-1.1513-.65947-.76792-.98929-1.75586-.9895-2.96381v-.24855Zm.90625.24503c0,.94496.23917,1.73943.71751,2.38347.47775.64365,1.14465.96526,2.00069.96488.8406,0,1.50125-.32163,1.98194-.96488.48067-.64365.72102-1.43814.72102-2.38347v-.24855c0-.93088-.24152-1.72068-.72454-2.3694-.48304-.64834-1.14758-.9727-1.99366-.97309-.84529,0-1.5071.32436-1.98545.97309-.47835.64951-.71751,1.43931-.71751,2.3694v.24855Z"/>
      <path class="uuid-a89f4645-86ec-4e18-bf1a-a3f43dfcd06e" d="m147.67114,166.1298l.08323,1.35178c.24223-.45752.60355-.8411,1.04577-1.11026.47393-.27126,1.01342-.40674,1.55928-.39157.55721-.02024,1.10628.13835,1.56691.45255.4203.30248.72102.76323.90216,1.38225.21881-.5387.58363-1.00563,1.0534-1.34825.48923-.33474,1.07228-.50515,1.66479-.48655.87109,0,1.54307.28918,2.01593.86757.47306.57916.70968,1.47526.70989,2.68829v4.76461h-.90625v-4.78924c0-1.00826-.17743-1.72068-.53226-2.13728-.35465-.4162-.8492-.6245-1.48366-.62489-.69992,0-1.24097.21962-1.62318.65889-.39991.47879-.64717,1.06642-.70989,1.68708,0,.03518.00118.08559.00352.15124.00293.06565.0041.11372.0041.14421v4.90999h-.91388v-4.78924c0-.98832-.17997-1.69567-.53988-2.12203-.35993-.42675-.85448-.64012-1.48366-.64012-.63953,0-1.14659.16296-1.52117.48888-.38931.3477-.66437.80503-.78903,1.3119v5.75059h-.91388v-8.1704h.80775Z"/>
      <path class="uuid-a89f4645-86ec-4e18-bf1a-a3f43dfcd06e" d="m161.37643,166.1298l.08323,1.35178c.24207-.45764.60341-.84127,1.04577-1.11026.47387-.2714,1.0134-.40689,1.55928-.39157.55703-.02024,1.10591.13835,1.56631.45255.42089.30248.72181.76323.90275,1.38225.21859-.53865.58322-1.0056,1.0528-1.34825.48928-.33467,1.0723-.50505,1.66479-.48655.87109,0,1.54327.28918,2.01651.86757.47249.57916.70889,1.47526.7093,2.68829v4.76461h-.90624v-4.78924c0-1.00826-.17742-1.72068-.53226-2.13728-.35407-.4162-.84842-.6245-1.48308-.62489-.69992,0-1.24117.21962-1.62377.65889-.39971.47885-.64677,1.06647-.7093,1.68708,0,.03518.00118.08559.00352.15124.00235.06565.00352.11372.00352.14421v4.90999h-.9133v-4.78924c0-.98832-.18016-1.69567-.54048-2.12203-.35992-.42675-.85428-.64012-1.48308-.64012-.64012,0-1.14738.16296-1.52177.48888-.38913.34786-.66414.80512-.78903,1.3119v5.75059h-.9133v-8.1704h.80779Z"/>
      <path class="uuid-a89f4645-86ec-4e18-bf1a-a3f43dfcd06e" d="m177.38429,174.45848c-.97582.02076-1.91015-.39441-2.54879-1.13253-.67764-.75503-1.01609-1.7113-1.01529-2.86884v-.41505c.00002-1.16888.33608-2.13805,1.00826-2.90754.67178-.77026,1.48581-1.1552,2.4421-1.1548,1.00121,0,1.78908.31693,2.36354.95082.5733.63426.86014,1.47994.86054,2.53705v.77026h-5.76817v.21806c.00002.91916.24386,1.68786.73157,2.3061.45496.60153,1.17231.94646,1.92625.92619.49099.01247.98001-.06665,1.44204-.23331.3847-.14717.73247-.37688,1.01881-.67295l.38571.6202c-.32876.33784-.7267.6006-1.16653.77026-.53641.2025-1.10684.29963-1.68004.28607Zm-.11372-7.70966c-.64726-.00978-1.26491.27066-1.68356.7644-.46468.53633-.74279,1.20898-.79253,1.91686l.01407.03752h4.78805v-.22628c.02085-.64973-.203-1.28362-.62723-1.77618-.41737-.47716-.98364-.71595-1.6988-.71633Z"/>
      <path class="uuid-a89f4645-86ec-4e18-bf1a-a3f43dfcd06e" d="m187.17728,172.21921c-.00237-.38703-.17521-.75334-.47247-1.00123-.3142-.28607-.88164-.51977-1.70231-.7011-.9766-.21105-1.69762-.49045-2.16306-.83826-.46543-.34703-.69834-.83747-.69875-1.47136,0-.62489.26302-1.15247.78903-1.58273.5264-.43028,1.2224-.64521,2.08804-.64482.92148,0,1.65149.22744,2.19002.68233.51838.41197.80538,1.04931.77026,1.71052l-.01524.04572h-.83828c-.00355-.4563-.21346-.88646-.57095-1.17005-.37985-.33295-.89182-.49944-1.53584-.49944-.66004,0-1.15482.14187-1.48425.42559-.3082.23888-.49042.60545-.49474.99537-.00706.35911.15007.70184.42675.93088.28488.2462.85272.46152,1.70349.64598.97074.21806,1.69801.51506,2.18183.89103.47671.36277.747.93488.72454,1.53349.01385.65424-.29528,1.27335-.82654,1.65542-.55103.42089-1.27987.63151-2.18652.63192-.99067,0-1.76954-.23643-2.33657-.7093-.56626-.47366-.83435-1.03756-.80427-1.69176l.01524-.04455h.83122c.03518.58619.27551,1.01178.72102,1.27674.47804.27448,1.0223.41238,1.57336.39862.65537-.00002,1.17161-.14304,1.54873-.42909.3775-.28608.56626-.63273.56626-1.03994Z"/>
      <g>
        <circle class="uuid-8bf36c73-fc81-4cb1-9c85-a5fc67a0ff81" cx="196.98054" cy="27.58597" r="27.58596"/>
        <circle class="uuid-a89f4645-86ec-4e18-bf1a-a3f43dfcd06e" cx="102.84436" cy="70.6579" r="18.80332"/>
        <circle class="uuid-398bc130-8763-4d6b-af3c-6c84fddd03d5" cx="140.77453" cy="37.49459" r="13.78736"/>
        <circle class="uuid-193c1ce2-bada-4e46-b790-60df4a173cff" cx="254.38102" cy="74.28244" r="19.32515"/>
      </g>
    </g>
  </g>
</svg>